<mxfile host="app.diagrams.net" agent="Mozilla/5.0 (Windows NT 10.0; Win64; x64) AppleWebKit/537.36 (KHTML, like Gecko) Chrome/135.0.0.0 Safari/537.36" version="26.2.13">
  <diagram name="Страница-1" id="5MFImVvSl46FDJ8rZbkG">
    <mxGraphModel dx="1044" dy="570" grid="1" gridSize="10" guides="1" tooltips="1" connect="1" arrows="1" fold="1" page="1" pageScale="1" pageWidth="827" pageHeight="1169" math="0" shadow="0">
      <root>
        <mxCell id="0" />
        <mxCell id="1" parent="0" />
        <mxCell id="mfPcAdH8fGxZBWsUXNzj-3" value="&lt;p style=&quot;margin:0px;margin-top:6px;text-align:center;&quot;&gt;&lt;b&gt;UiManager&lt;/b&gt;&lt;/p&gt;&lt;p style=&quot;margin:0px;margin-left:8px;&quot;&gt;&lt;br&gt;&lt;/p&gt;" style="align=left;overflow=fill;html=1;dropTarget=0;whiteSpace=wrap;" vertex="1" parent="1">
          <mxGeometry x="380" y="30" width="140" height="60" as="geometry" />
        </mxCell>
        <mxCell id="mfPcAdH8fGxZBWsUXNzj-4" value="" style="shape=component;jettyWidth=8;jettyHeight=4;" vertex="1" parent="mfPcAdH8fGxZBWsUXNzj-3">
          <mxGeometry x="1" width="20" height="20" relative="1" as="geometry">
            <mxPoint x="-24" y="4" as="offset" />
          </mxGeometry>
        </mxCell>
        <mxCell id="mfPcAdH8fGxZBWsUXNzj-5" value="&lt;p style=&quot;margin:0px;margin-top:6px;text-align:center;&quot;&gt;&lt;b&gt;AuthenticationManager&amp;nbsp; &amp;nbsp;&lt;/b&gt;&lt;/p&gt;" style="align=left;overflow=fill;html=1;dropTarget=0;whiteSpace=wrap;" vertex="1" parent="1">
          <mxGeometry x="360" y="180" width="180" height="60" as="geometry" />
        </mxCell>
        <mxCell id="mfPcAdH8fGxZBWsUXNzj-6" value="" style="shape=component;jettyWidth=8;jettyHeight=4;" vertex="1" parent="mfPcAdH8fGxZBWsUXNzj-5">
          <mxGeometry x="1" width="20" height="20" relative="1" as="geometry">
            <mxPoint x="-24" y="4" as="offset" />
          </mxGeometry>
        </mxCell>
        <mxCell id="mfPcAdH8fGxZBWsUXNzj-7" value="&lt;p style=&quot;margin:0px;margin-top:6px;text-align:center;&quot;&gt;&lt;b&gt;AdminRequests&lt;/b&gt;&lt;/p&gt;" style="align=left;overflow=fill;html=1;dropTarget=0;whiteSpace=wrap;" vertex="1" parent="1">
          <mxGeometry x="530" y="300" width="140" height="60" as="geometry" />
        </mxCell>
        <mxCell id="mfPcAdH8fGxZBWsUXNzj-8" value="" style="shape=component;jettyWidth=8;jettyHeight=4;" vertex="1" parent="mfPcAdH8fGxZBWsUXNzj-7">
          <mxGeometry x="1" width="20" height="20" relative="1" as="geometry">
            <mxPoint x="-24" y="4" as="offset" />
          </mxGeometry>
        </mxCell>
        <mxCell id="mfPcAdH8fGxZBWsUXNzj-9" value="&lt;p style=&quot;margin:0px;margin-top:6px;text-align:center;&quot;&gt;&lt;b&gt;ClientRequest&lt;/b&gt;&lt;/p&gt;" style="align=left;overflow=fill;html=1;dropTarget=0;whiteSpace=wrap;" vertex="1" parent="1">
          <mxGeometry x="240" y="300" width="140" height="60" as="geometry" />
        </mxCell>
        <mxCell id="mfPcAdH8fGxZBWsUXNzj-10" value="" style="shape=component;jettyWidth=8;jettyHeight=4;" vertex="1" parent="mfPcAdH8fGxZBWsUXNzj-9">
          <mxGeometry x="1" width="20" height="20" relative="1" as="geometry">
            <mxPoint x="-24" y="4" as="offset" />
          </mxGeometry>
        </mxCell>
        <mxCell id="mfPcAdH8fGxZBWsUXNzj-11" value="&lt;p style=&quot;margin:0px;margin-top:6px;text-align:center;&quot;&gt;&lt;b&gt;ConnectDatabase&amp;nbsp; &amp;nbsp;&amp;nbsp;&lt;/b&gt;&lt;/p&gt;" style="align=left;overflow=fill;html=1;dropTarget=0;whiteSpace=wrap;" vertex="1" parent="1">
          <mxGeometry x="380" y="460" width="140" height="50" as="geometry" />
        </mxCell>
        <mxCell id="mfPcAdH8fGxZBWsUXNzj-12" value="" style="shape=component;jettyWidth=8;jettyHeight=4;" vertex="1" parent="mfPcAdH8fGxZBWsUXNzj-11">
          <mxGeometry x="1" width="20" height="20" relative="1" as="geometry">
            <mxPoint x="-24" y="4" as="offset" />
          </mxGeometry>
        </mxCell>
        <mxCell id="mfPcAdH8fGxZBWsUXNzj-18" value="" style="rounded=0;orthogonalLoop=1;jettySize=auto;html=1;endArrow=halfCircle;endFill=0;endSize=6;strokeWidth=1;sketch=0;exitX=0.25;exitY=1;exitDx=0;exitDy=0;" edge="1" target="mfPcAdH8fGxZBWsUXNzj-20" parent="1" source="mfPcAdH8fGxZBWsUXNzj-5">
          <mxGeometry relative="1" as="geometry">
            <mxPoint x="510" y="295" as="sourcePoint" />
          </mxGeometry>
        </mxCell>
        <mxCell id="mfPcAdH8fGxZBWsUXNzj-19" value="" style="rounded=0;orthogonalLoop=1;jettySize=auto;html=1;endArrow=oval;endFill=0;sketch=0;sourcePerimeterSpacing=0;targetPerimeterSpacing=0;endSize=10;exitX=0.5;exitY=0;exitDx=0;exitDy=0;" edge="1" target="mfPcAdH8fGxZBWsUXNzj-20" parent="1" source="mfPcAdH8fGxZBWsUXNzj-9">
          <mxGeometry relative="1" as="geometry">
            <mxPoint x="470" y="295" as="sourcePoint" />
          </mxGeometry>
        </mxCell>
        <mxCell id="mfPcAdH8fGxZBWsUXNzj-20" value="" style="ellipse;whiteSpace=wrap;html=1;align=center;aspect=fixed;fillColor=none;strokeColor=none;resizable=0;perimeter=centerPerimeter;rotatable=0;allowArrows=0;points=[];outlineConnect=1;" vertex="1" parent="1">
          <mxGeometry x="340" y="270" width="10" height="10" as="geometry" />
        </mxCell>
        <mxCell id="mfPcAdH8fGxZBWsUXNzj-21" value="" style="rounded=0;orthogonalLoop=1;jettySize=auto;html=1;endArrow=halfCircle;endFill=0;endSize=6;strokeWidth=1;sketch=0;exitX=0.878;exitY=0.99;exitDx=0;exitDy=0;exitPerimeter=0;" edge="1" parent="1" source="mfPcAdH8fGxZBWsUXNzj-5">
          <mxGeometry relative="1" as="geometry">
            <mxPoint x="510" y="295" as="sourcePoint" />
            <mxPoint x="540" y="270" as="targetPoint" />
          </mxGeometry>
        </mxCell>
        <mxCell id="mfPcAdH8fGxZBWsUXNzj-22" value="" style="rounded=0;orthogonalLoop=1;jettySize=auto;html=1;endArrow=oval;endFill=0;sketch=0;sourcePerimeterSpacing=0;targetPerimeterSpacing=0;endSize=10;exitX=0.5;exitY=0;exitDx=0;exitDy=0;" edge="1" parent="1" source="mfPcAdH8fGxZBWsUXNzj-7">
          <mxGeometry relative="1" as="geometry">
            <mxPoint x="470" y="295" as="sourcePoint" />
            <mxPoint x="540" y="270" as="targetPoint" />
          </mxGeometry>
        </mxCell>
        <mxCell id="mfPcAdH8fGxZBWsUXNzj-23" value="" style="ellipse;whiteSpace=wrap;html=1;align=center;aspect=fixed;fillColor=none;strokeColor=none;resizable=0;perimeter=centerPerimeter;rotatable=0;allowArrows=0;points=[];outlineConnect=1;" vertex="1" parent="1">
          <mxGeometry x="485" y="290" width="10" height="10" as="geometry" />
        </mxCell>
        <mxCell id="mfPcAdH8fGxZBWsUXNzj-24" value="" style="rounded=0;orthogonalLoop=1;jettySize=auto;html=1;endArrow=halfCircle;endFill=0;endSize=6;strokeWidth=1;sketch=0;exitX=0.5;exitY=1;exitDx=0;exitDy=0;" edge="1" target="mfPcAdH8fGxZBWsUXNzj-26" parent="1" source="mfPcAdH8fGxZBWsUXNzj-9">
          <mxGeometry relative="1" as="geometry">
            <mxPoint x="510" y="295" as="sourcePoint" />
          </mxGeometry>
        </mxCell>
        <mxCell id="mfPcAdH8fGxZBWsUXNzj-25" value="" style="rounded=0;orthogonalLoop=1;jettySize=auto;html=1;endArrow=oval;endFill=0;sketch=0;sourcePerimeterSpacing=0;targetPerimeterSpacing=0;endSize=10;exitX=0.25;exitY=0;exitDx=0;exitDy=0;" edge="1" target="mfPcAdH8fGxZBWsUXNzj-26" parent="1" source="mfPcAdH8fGxZBWsUXNzj-11">
          <mxGeometry relative="1" as="geometry">
            <mxPoint x="470" y="295" as="sourcePoint" />
          </mxGeometry>
        </mxCell>
        <mxCell id="mfPcAdH8fGxZBWsUXNzj-26" value="" style="ellipse;whiteSpace=wrap;html=1;align=center;aspect=fixed;fillColor=none;strokeColor=none;resizable=0;perimeter=centerPerimeter;rotatable=0;allowArrows=0;points=[];outlineConnect=1;" vertex="1" parent="1">
          <mxGeometry x="350" y="410" width="10" height="10" as="geometry" />
        </mxCell>
        <mxCell id="mfPcAdH8fGxZBWsUXNzj-27" value="" style="rounded=0;orthogonalLoop=1;jettySize=auto;html=1;endArrow=halfCircle;endFill=0;endSize=6;strokeWidth=1;sketch=0;exitX=0.25;exitY=1;exitDx=0;exitDy=0;" edge="1" target="mfPcAdH8fGxZBWsUXNzj-29" parent="1" source="mfPcAdH8fGxZBWsUXNzj-7">
          <mxGeometry relative="1" as="geometry">
            <mxPoint x="540" y="415" as="sourcePoint" />
          </mxGeometry>
        </mxCell>
        <mxCell id="mfPcAdH8fGxZBWsUXNzj-28" value="" style="rounded=0;orthogonalLoop=1;jettySize=auto;html=1;endArrow=oval;endFill=0;sketch=0;sourcePerimeterSpacing=0;targetPerimeterSpacing=0;endSize=10;exitX=0.75;exitY=0;exitDx=0;exitDy=0;" edge="1" target="mfPcAdH8fGxZBWsUXNzj-29" parent="1" source="mfPcAdH8fGxZBWsUXNzj-11">
          <mxGeometry relative="1" as="geometry">
            <mxPoint x="500" y="415" as="sourcePoint" />
          </mxGeometry>
        </mxCell>
        <mxCell id="mfPcAdH8fGxZBWsUXNzj-29" value="" style="ellipse;whiteSpace=wrap;html=1;align=center;aspect=fixed;fillColor=none;strokeColor=none;resizable=0;perimeter=centerPerimeter;rotatable=0;allowArrows=0;points=[];outlineConnect=1;" vertex="1" parent="1">
          <mxGeometry x="515" y="410" width="10" height="10" as="geometry" />
        </mxCell>
        <mxCell id="mfPcAdH8fGxZBWsUXNzj-34" value="JDBC" style="text;html=1;align=center;verticalAlign=middle;whiteSpace=wrap;rounded=0;" vertex="1" parent="1">
          <mxGeometry x="260" y="380" width="60" height="30" as="geometry" />
        </mxCell>
        <mxCell id="mfPcAdH8fGxZBWsUXNzj-35" value="JDBC" style="text;html=1;align=center;verticalAlign=middle;whiteSpace=wrap;rounded=0;" vertex="1" parent="1">
          <mxGeometry x="550" y="390" width="60" height="30" as="geometry" />
        </mxCell>
        <mxCell id="mfPcAdH8fGxZBWsUXNzj-36" value="IAuthenticationManager" style="text;html=1;align=center;verticalAlign=middle;whiteSpace=wrap;rounded=0;" vertex="1" parent="1">
          <mxGeometry x="270" y="240" width="60" height="30" as="geometry" />
        </mxCell>
        <mxCell id="mfPcAdH8fGxZBWsUXNzj-37" value="IAuthenticationManager" style="text;html=1;align=center;verticalAlign=middle;whiteSpace=wrap;rounded=0;" vertex="1" parent="1">
          <mxGeometry x="580" y="240" width="60" height="30" as="geometry" />
        </mxCell>
        <mxCell id="mfPcAdH8fGxZBWsUXNzj-39" value="" style="endArrow=none;html=1;rounded=0;entryX=0.5;entryY=1;entryDx=0;entryDy=0;exitX=0.5;exitY=0;exitDx=0;exitDy=0;" edge="1" parent="1" source="mfPcAdH8fGxZBWsUXNzj-5" target="mfPcAdH8fGxZBWsUXNzj-3">
          <mxGeometry width="50" height="50" relative="1" as="geometry">
            <mxPoint x="425" y="160" as="sourcePoint" />
            <mxPoint x="475" y="110" as="targetPoint" />
          </mxGeometry>
        </mxCell>
        <mxCell id="mfPcAdH8fGxZBWsUXNzj-40" value="&lt;p style=&quot;margin:0px;margin-top:6px;text-align:center;&quot;&gt;&lt;b&gt;Client&lt;/b&gt;&lt;/p&gt;" style="align=left;overflow=fill;html=1;dropTarget=0;whiteSpace=wrap;" vertex="1" parent="1">
          <mxGeometry x="580" y="30" width="140" height="60" as="geometry" />
        </mxCell>
        <mxCell id="mfPcAdH8fGxZBWsUXNzj-41" value="" style="shape=component;jettyWidth=8;jettyHeight=4;" vertex="1" parent="mfPcAdH8fGxZBWsUXNzj-40">
          <mxGeometry x="1" width="20" height="20" relative="1" as="geometry">
            <mxPoint x="-24" y="4" as="offset" />
          </mxGeometry>
        </mxCell>
        <mxCell id="mfPcAdH8fGxZBWsUXNzj-45" value="" style="rounded=0;orthogonalLoop=1;jettySize=auto;html=1;endArrow=halfCircle;endFill=0;endSize=6;strokeWidth=1;sketch=0;exitX=0;exitY=0.5;exitDx=0;exitDy=0;" edge="1" target="mfPcAdH8fGxZBWsUXNzj-47" parent="1" source="mfPcAdH8fGxZBWsUXNzj-40">
          <mxGeometry relative="1" as="geometry">
            <mxPoint x="560" y="60" as="sourcePoint" />
          </mxGeometry>
        </mxCell>
        <mxCell id="mfPcAdH8fGxZBWsUXNzj-46" value="" style="rounded=0;orthogonalLoop=1;jettySize=auto;html=1;endArrow=oval;endFill=0;sketch=0;sourcePerimeterSpacing=0;targetPerimeterSpacing=0;endSize=10;" edge="1" target="mfPcAdH8fGxZBWsUXNzj-47" parent="1">
          <mxGeometry relative="1" as="geometry">
            <mxPoint x="520" y="60" as="sourcePoint" />
          </mxGeometry>
        </mxCell>
        <mxCell id="mfPcAdH8fGxZBWsUXNzj-47" value="" style="ellipse;whiteSpace=wrap;html=1;align=center;aspect=fixed;fillColor=none;strokeColor=none;resizable=0;perimeter=centerPerimeter;rotatable=0;allowArrows=0;points=[];outlineConnect=1;" vertex="1" parent="1">
          <mxGeometry x="535" y="55" width="10" height="10" as="geometry" />
        </mxCell>
        <mxCell id="mfPcAdH8fGxZBWsUXNzj-48" value="socket" style="text;html=1;align=center;verticalAlign=middle;whiteSpace=wrap;rounded=0;" vertex="1" parent="1">
          <mxGeometry x="520" y="25" width="60" height="30" as="geometry" />
        </mxCell>
      </root>
    </mxGraphModel>
  </diagram>
</mxfile>
